<mxfile host="app.diagrams.net" modified="2020-08-30T07:59:13.448Z" agent="5.0 (Windows NT 10.0; Win64; x64) AppleWebKit/537.36 (KHTML, like Gecko) Chrome/84.0.4147.135 Safari/537.36" etag="iNgxqKRdcIHldy48XCbB" version="13.6.2" type="github">
  <diagram id="NbJ3WY8GJYofwHBJAQQ3" name="Page-1">
    <mxGraphModel dx="1038" dy="548" grid="1" gridSize="10" guides="1" tooltips="1" connect="1" arrows="1" fold="1" page="1" pageScale="1" pageWidth="850" pageHeight="1100" math="0" shadow="0">
      <root>
        <mxCell id="0" />
        <mxCell id="1" parent="0" />
        <mxCell id="VEZ8kkwsWYZN84fM1rc7-5" value="" style="rounded=1;arcSize=10;dashed=1;fillColor=none;gradientColor=none;dashPattern=1 1;strokeWidth=2;" vertex="1" parent="1">
          <mxGeometry x="180" y="130" width="570" height="270" as="geometry" />
        </mxCell>
        <mxCell id="VEZ8kkwsWYZN84fM1rc7-6" value="" style="shape=image;html=1;verticalAlign=top;verticalLabelPosition=bottom;labelBackgroundColor=#ffffff;imageAspect=0;aspect=fixed;image=https://cdn2.iconfinder.com/data/icons/amazon-aws-stencils/100/Non-Service_Specific_copy__AWS_Cloud-128.png" vertex="1" parent="1">
          <mxGeometry x="190" y="100" width="60" height="60" as="geometry" />
        </mxCell>
        <mxCell id="VEZ8kkwsWYZN84fM1rc7-13" style="edgeStyle=orthogonalEdgeStyle;rounded=0;orthogonalLoop=1;jettySize=auto;html=1;exitX=1;exitY=0.5;exitDx=0;exitDy=0;exitPerimeter=0;" edge="1" parent="1" source="VEZ8kkwsWYZN84fM1rc7-7" target="VEZ8kkwsWYZN84fM1rc7-8">
          <mxGeometry relative="1" as="geometry" />
        </mxCell>
        <mxCell id="VEZ8kkwsWYZN84fM1rc7-16" style="edgeStyle=orthogonalEdgeStyle;rounded=0;orthogonalLoop=1;jettySize=auto;html=1;exitX=0.5;exitY=1;exitDx=0;exitDy=0;exitPerimeter=0;" edge="1" parent="1" source="VEZ8kkwsWYZN84fM1rc7-7" target="VEZ8kkwsWYZN84fM1rc7-9">
          <mxGeometry relative="1" as="geometry" />
        </mxCell>
        <mxCell id="VEZ8kkwsWYZN84fM1rc7-7" value="" style="outlineConnect=0;dashed=0;verticalLabelPosition=bottom;verticalAlign=top;align=center;html=1;shape=mxgraph.aws3.lambda_function;fillColor=#F58534;gradientColor=none;" vertex="1" parent="1">
          <mxGeometry x="368" y="184" width="69" height="72" as="geometry" />
        </mxCell>
        <mxCell id="VEZ8kkwsWYZN84fM1rc7-8" value="" style="outlineConnect=0;dashed=0;verticalLabelPosition=bottom;verticalAlign=top;align=center;html=1;shape=mxgraph.aws3.dynamo_db;fillColor=#2E73B8;gradientColor=none;" vertex="1" parent="1">
          <mxGeometry x="540" y="179.5" width="72" height="81" as="geometry" />
        </mxCell>
        <mxCell id="VEZ8kkwsWYZN84fM1rc7-9" value="" style="outlineConnect=0;dashed=0;verticalLabelPosition=bottom;verticalAlign=top;align=center;html=1;shape=mxgraph.aws3.cognito;fillColor=#AD688B;gradientColor=none;" vertex="1" parent="1">
          <mxGeometry x="369.38" y="307" width="66.25" height="73" as="geometry" />
        </mxCell>
        <mxCell id="VEZ8kkwsWYZN84fM1rc7-14" style="edgeStyle=orthogonalEdgeStyle;rounded=0;orthogonalLoop=1;jettySize=auto;html=1;entryX=0;entryY=0.5;entryDx=0;entryDy=0;entryPerimeter=0;" edge="1" parent="1" source="VEZ8kkwsWYZN84fM1rc7-11" target="VEZ8kkwsWYZN84fM1rc7-7">
          <mxGeometry relative="1" as="geometry" />
        </mxCell>
        <mxCell id="VEZ8kkwsWYZN84fM1rc7-11" value="" style="outlineConnect=0;dashed=0;verticalLabelPosition=bottom;verticalAlign=top;align=center;html=1;shape=mxgraph.aws3.api_gateway;fillColor=#D9A741;gradientColor=none;" vertex="1" parent="1">
          <mxGeometry x="199" y="174" width="81" height="93" as="geometry" />
        </mxCell>
        <mxCell id="VEZ8kkwsWYZN84fM1rc7-17" style="edgeStyle=orthogonalEdgeStyle;rounded=0;orthogonalLoop=1;jettySize=auto;html=1;exitX=1;exitY=0.5;exitDx=0;exitDy=0;" edge="1" parent="1" source="VEZ8kkwsWYZN84fM1rc7-15" target="VEZ8kkwsWYZN84fM1rc7-11">
          <mxGeometry relative="1" as="geometry" />
        </mxCell>
        <mxCell id="VEZ8kkwsWYZN84fM1rc7-15" value="Unity App" style="shape=image;html=1;verticalAlign=top;verticalLabelPosition=bottom;labelBackgroundColor=#ffffff;imageAspect=0;aspect=fixed;image=https://cdn4.iconfinder.com/data/icons/logos-brands-5/24/unity-128.png" vertex="1" parent="1">
          <mxGeometry x="20" y="185.5" width="70" height="70" as="geometry" />
        </mxCell>
      </root>
    </mxGraphModel>
  </diagram>
</mxfile>
